<svg xmlns="http://www.w3.org/2000/svg" xmlns:xlink="http://www.w3.org/1999/xlink" width="1000" zoomAndPan="magnify" viewBox="0 0 750 749.999995" height="1000" preserveAspectRatio="xMidYMid meet" version="1.0"><defs><clipPath id="90f2c5cffd"><path d="M 474.441406 466.234375 L 708.441406 466.234375 L 708.441406 700.234375 L 474.441406 700.234375 Z M 474.441406 466.234375 " clip-rule="nonzero"/></clipPath><clipPath id="4bf9681d98"><path d="M 591.484375 466.234375 C 526.84375 466.234375 474.441406 518.636719 474.441406 583.277344 C 474.441406 647.914062 526.84375 700.316406 591.484375 700.316406 C 656.125 700.316406 708.523438 647.914062 708.523438 583.277344 C 708.523438 518.636719 656.125 466.234375 591.484375 466.234375 Z M 591.484375 466.234375 " clip-rule="nonzero"/></clipPath></defs><path fill="#000000" d="M 48.097656 623.480469 L 123.097656 623.480469 C 123.589844 623.480469 124.078125 623.527344 124.558594 623.621094 C 125.042969 623.71875 125.511719 623.859375 125.96875 624.050781 C 126.421875 624.238281 126.855469 624.46875 127.265625 624.742188 C 127.671875 625.015625 128.050781 625.328125 128.402344 625.675781 C 128.75 626.023438 129.058594 626.402344 129.332031 626.8125 C 129.605469 627.222656 129.839844 627.652344 130.027344 628.109375 C 130.214844 628.5625 130.355469 629.03125 130.453125 629.515625 C 130.550781 630 130.597656 630.484375 130.597656 630.980469 C 130.597656 631.472656 130.550781 631.957031 130.453125 632.441406 C 130.355469 632.925781 130.214844 633.394531 130.027344 633.847656 C 129.839844 634.304688 129.605469 634.734375 129.332031 635.144531 C 129.058594 635.554688 128.75 635.933594 128.402344 636.28125 C 128.050781 636.628906 127.671875 636.941406 127.265625 637.214844 C 126.855469 637.488281 126.421875 637.71875 125.96875 637.90625 C 125.511719 638.097656 125.042969 638.238281 124.558594 638.335938 C 124.078125 638.429688 123.589844 638.480469 123.097656 638.480469 L 48.097656 638.480469 C 47.605469 638.480469 47.117188 638.429688 46.632812 638.335938 C 46.152344 638.238281 45.683594 638.097656 45.226562 637.90625 C 44.773438 637.71875 44.339844 637.488281 43.929688 637.214844 C 43.519531 636.941406 43.140625 636.628906 42.792969 636.28125 C 42.445312 635.933594 42.136719 635.554688 41.859375 635.144531 C 41.585938 634.734375 41.355469 634.304688 41.167969 633.847656 C 40.980469 633.394531 40.835938 632.925781 40.742188 632.441406 C 40.644531 631.957031 40.597656 631.472656 40.597656 630.980469 C 40.597656 630.484375 40.644531 630 40.742188 629.515625 C 40.835938 629.03125 40.980469 628.5625 41.167969 628.109375 C 41.355469 627.652344 41.585938 627.222656 41.859375 626.8125 C 42.136719 626.402344 42.445312 626.023438 42.792969 625.675781 C 43.140625 625.328125 43.519531 625.015625 43.929688 624.742188 C 44.339844 624.46875 44.773438 624.238281 45.226562 624.050781 C 45.683594 623.859375 46.152344 623.71875 46.632812 623.621094 C 47.117188 623.527344 47.605469 623.480469 48.097656 623.480469 Z M 153.097656 623.480469 L 228.097656 623.480469 C 228.589844 623.480469 229.078125 623.527344 229.558594 623.621094 C 230.042969 623.71875 230.511719 623.859375 230.96875 624.050781 C 231.421875 624.238281 231.855469 624.46875 232.265625 624.742188 C 232.671875 625.015625 233.050781 625.328125 233.402344 625.675781 C 233.75 626.023438 234.058594 626.402344 234.332031 626.8125 C 234.605469 627.222656 234.839844 627.652344 235.027344 628.109375 C 235.214844 628.5625 235.355469 629.03125 235.453125 629.515625 C 235.550781 630 235.597656 630.484375 235.597656 630.980469 C 235.597656 631.472656 235.550781 631.957031 235.453125 632.441406 C 235.355469 632.925781 235.214844 633.394531 235.027344 633.847656 C 234.839844 634.304688 234.605469 634.734375 234.332031 635.144531 C 234.058594 635.554688 233.75 635.933594 233.402344 636.28125 C 233.050781 636.628906 232.671875 636.941406 232.265625 637.214844 C 231.855469 637.488281 231.421875 637.71875 230.96875 637.90625 C 230.511719 638.097656 230.042969 638.238281 229.558594 638.335938 C 229.078125 638.429688 228.589844 638.480469 228.097656 638.480469 L 153.097656 638.480469 C 152.605469 638.480469 152.117188 638.429688 151.632812 638.335938 C 151.152344 638.238281 150.683594 638.097656 150.226562 637.90625 C 149.773438 637.71875 149.339844 637.488281 148.929688 637.214844 C 148.519531 636.941406 148.140625 636.628906 147.792969 636.28125 C 147.445312 635.933594 147.136719 635.554688 146.859375 635.144531 C 146.585938 634.734375 146.355469 634.304688 146.167969 633.847656 C 145.980469 633.394531 145.835938 632.925781 145.742188 632.441406 C 145.644531 631.957031 145.597656 631.472656 145.597656 630.980469 C 145.597656 630.484375 145.644531 630 145.742188 629.515625 C 145.835938 629.03125 145.980469 628.5625 146.167969 628.109375 C 146.355469 627.652344 146.585938 627.222656 146.859375 626.8125 C 147.136719 626.402344 147.445312 626.023438 147.792969 625.675781 C 148.140625 625.328125 148.519531 625.015625 148.929688 624.742188 C 149.339844 624.46875 149.773438 624.238281 150.226562 624.050781 C 150.683594 623.859375 151.152344 623.71875 151.632812 623.621094 C 152.117188 623.527344 152.605469 623.480469 153.097656 623.480469 Z M 258.097656 623.480469 L 333.097656 623.480469 C 333.589844 623.480469 334.078125 623.527344 334.558594 623.621094 C 335.042969 623.71875 335.511719 623.859375 335.96875 624.050781 C 336.421875 624.238281 336.855469 624.46875 337.265625 624.742188 C 337.671875 625.015625 338.050781 625.328125 338.402344 625.675781 C 338.75 626.023438 339.058594 626.402344 339.332031 626.8125 C 339.605469 627.222656 339.839844 627.652344 340.027344 628.109375 C 340.214844 628.5625 340.355469 629.03125 340.453125 629.515625 C 340.550781 630 340.597656 630.484375 340.597656 630.980469 C 340.597656 631.472656 340.550781 631.957031 340.453125 632.441406 C 340.355469 632.925781 340.214844 633.394531 340.027344 633.847656 C 339.839844 634.304688 339.605469 634.734375 339.332031 635.144531 C 339.058594 635.554688 338.75 635.933594 338.402344 636.28125 C 338.050781 636.628906 337.671875 636.941406 337.265625 637.214844 C 336.855469 637.488281 336.421875 637.71875 335.96875 637.90625 C 335.511719 638.097656 335.042969 638.238281 334.558594 638.335938 C 334.078125 638.429688 333.589844 638.480469 333.097656 638.480469 L 258.097656 638.480469 C 257.605469 638.480469 257.117188 638.429688 256.632812 638.335938 C 256.152344 638.238281 255.683594 638.097656 255.226562 637.90625 C 254.773438 637.71875 254.339844 637.488281 253.929688 637.214844 C 253.519531 636.941406 253.140625 636.628906 252.792969 636.28125 C 252.445312 635.933594 252.136719 635.554688 251.859375 635.144531 C 251.585938 634.734375 251.355469 634.304688 251.167969 633.847656 C 250.980469 633.394531 250.835938 632.925781 250.742188 632.441406 C 250.644531 631.957031 250.597656 631.472656 250.597656 630.980469 C 250.597656 630.484375 250.644531 630 250.742188 629.515625 C 250.835938 629.03125 250.980469 628.5625 251.167969 628.109375 C 251.355469 627.652344 251.585938 627.222656 251.859375 626.8125 C 252.136719 626.402344 252.445312 626.023438 252.792969 625.675781 C 253.140625 625.328125 253.519531 625.015625 253.929688 624.742188 C 254.339844 624.46875 254.773438 624.238281 255.226562 624.050781 C 255.683594 623.859375 256.152344 623.71875 256.632812 623.621094 C 257.117188 623.527344 257.605469 623.480469 258.097656 623.480469 Z M 363.097656 623.480469 L 438.097656 623.480469 C 438.589844 623.480469 439.078125 623.527344 439.558594 623.621094 C 440.042969 623.71875 440.511719 623.859375 440.96875 624.050781 C 441.421875 624.238281 441.855469 624.46875 442.265625 624.742188 C 442.671875 625.015625 443.050781 625.328125 443.402344 625.675781 C 443.75 626.023438 444.058594 626.402344 444.332031 626.8125 C 444.605469 627.222656 444.835938 627.652344 445.027344 628.109375 C 445.214844 628.5625 445.355469 629.03125 445.453125 629.515625 C 445.550781 630 445.597656 630.484375 445.597656 630.980469 C 445.597656 631.472656 445.550781 631.957031 445.453125 632.441406 C 445.355469 632.925781 445.214844 633.394531 445.027344 633.847656 C 444.835938 634.304688 444.605469 634.734375 444.332031 635.144531 C 444.058594 635.554688 443.75 635.933594 443.402344 636.28125 C 443.050781 636.628906 442.671875 636.941406 442.265625 637.214844 C 441.855469 637.488281 441.421875 637.71875 440.96875 637.90625 C 440.511719 638.097656 440.042969 638.238281 439.558594 638.335938 C 439.078125 638.429688 438.589844 638.480469 438.097656 638.480469 L 363.097656 638.480469 C 362.605469 638.480469 362.117188 638.429688 361.632812 638.335938 C 361.152344 638.238281 360.683594 638.097656 360.226562 637.90625 C 359.773438 637.71875 359.339844 637.488281 358.929688 637.214844 C 358.519531 636.941406 358.140625 636.628906 357.792969 636.28125 C 357.445312 635.933594 357.136719 635.554688 356.859375 635.144531 C 356.585938 634.734375 356.355469 634.304688 356.167969 633.847656 C 355.980469 633.394531 355.835938 632.925781 355.742188 632.441406 C 355.644531 631.957031 355.597656 631.472656 355.597656 630.980469 C 355.597656 630.484375 355.644531 630 355.742188 629.515625 C 355.835938 629.03125 355.980469 628.5625 356.167969 628.109375 C 356.355469 627.652344 356.585938 627.222656 356.859375 626.8125 C 357.136719 626.402344 357.445312 626.023438 357.792969 625.675781 C 358.140625 625.328125 358.519531 625.015625 358.929688 624.742188 C 359.339844 624.46875 359.773438 624.238281 360.226562 624.050781 C 360.683594 623.859375 361.152344 623.71875 361.632812 623.621094 C 362.117188 623.527344 362.605469 623.480469 363.097656 623.480469 Z M 363.097656 623.480469 " fill-opacity="1" fill-rule="nonzero"/><path fill="#000000" d="M 33.070312 623.5 L 32.824219 548.5 C 32.824219 548.007812 32.871094 547.523438 32.964844 547.039062 C 33.058594 546.554688 33.199219 546.085938 33.386719 545.628906 C 33.574219 545.175781 33.804688 544.742188 34.074219 544.332031 C 34.347656 543.921875 34.65625 543.539062 35.003906 543.191406 C 35.351562 542.84375 35.730469 542.53125 36.136719 542.253906 C 36.546875 541.980469 36.976562 541.746094 37.433594 541.558594 C 37.886719 541.367188 38.355469 541.222656 38.839844 541.125 C 39.320312 541.027344 39.808594 540.980469 40.300781 540.976562 C 40.792969 540.976562 41.28125 541.023438 41.765625 541.117188 C 42.246094 541.210938 42.71875 541.351562 43.171875 541.539062 C 43.628906 541.726562 44.0625 541.957031 44.472656 542.226562 C 44.882812 542.5 45.261719 542.808594 45.609375 543.15625 C 45.960938 543.503906 46.273438 543.882812 46.546875 544.289062 C 46.824219 544.699219 47.054688 545.128906 47.246094 545.585938 C 47.433594 546.039062 47.578125 546.507812 47.675781 546.988281 C 47.773438 547.472656 47.824219 547.960938 47.824219 548.453125 L 48.070312 623.453125 C 48.074219 623.945312 48.027344 624.433594 47.929688 624.917969 C 47.835938 625.398438 47.695312 625.867188 47.507812 626.324219 C 47.324219 626.78125 47.09375 627.214844 46.820312 627.625 C 46.546875 628.035156 46.238281 628.414062 45.890625 628.761719 C 45.542969 629.113281 45.167969 629.425781 44.757812 629.699219 C 44.347656 629.972656 43.917969 630.207031 43.464844 630.398438 C 43.007812 630.585938 42.539062 630.730469 42.058594 630.828125 C 41.574219 630.925781 41.089844 630.976562 40.59375 630.976562 C 40.101562 630.980469 39.613281 630.933594 39.132812 630.835938 C 38.648438 630.742188 38.179688 630.601562 37.722656 630.414062 C 37.269531 630.226562 36.835938 630 36.425781 629.726562 C 36.015625 629.453125 35.632812 629.144531 35.285156 628.796875 C 34.9375 628.449219 34.625 628.074219 34.347656 627.664062 C 34.074219 627.253906 33.839844 626.824219 33.652344 626.371094 C 33.460938 625.914062 33.316406 625.445312 33.21875 624.964844 C 33.121094 624.480469 33.074219 623.992188 33.070312 623.5 Z M 32.726562 518.503906 L 32.480469 443.503906 C 32.480469 443.011719 32.527344 442.523438 32.621094 442.039062 C 32.714844 441.554688 32.855469 441.085938 33.042969 440.628906 C 33.230469 440.175781 33.460938 439.742188 33.730469 439.332031 C 34.003906 438.921875 34.3125 438.542969 34.660156 438.191406 C 35.007812 437.84375 35.386719 437.53125 35.792969 437.253906 C 36.203125 436.980469 36.632812 436.75 37.089844 436.558594 C 37.542969 436.367188 38.011719 436.222656 38.496094 436.125 C 38.976562 436.027344 39.464844 435.980469 39.957031 435.976562 C 40.449219 435.976562 40.9375 436.023438 41.421875 436.117188 C 41.902344 436.210938 42.375 436.351562 42.828125 436.539062 C 43.285156 436.726562 43.71875 436.957031 44.128906 437.226562 C 44.539062 437.5 44.917969 437.808594 45.269531 438.15625 C 45.617188 438.503906 45.929688 438.882812 46.203125 439.289062 C 46.480469 439.699219 46.710938 440.128906 46.902344 440.585938 C 47.089844 441.039062 47.234375 441.507812 47.332031 441.992188 C 47.429688 442.472656 47.480469 442.960938 47.480469 443.453125 L 47.726562 518.453125 C 47.730469 518.945312 47.683594 519.433594 47.585938 519.917969 C 47.492188 520.398438 47.351562 520.871094 47.164062 521.324219 C 46.980469 521.78125 46.75 522.214844 46.476562 522.625 C 46.203125 523.035156 45.894531 523.414062 45.546875 523.761719 C 45.199219 524.113281 44.824219 524.425781 44.414062 524.699219 C 44.003906 524.976562 43.574219 525.207031 43.121094 525.398438 C 42.664062 525.585938 42.195312 525.730469 41.714844 525.828125 C 41.230469 525.925781 40.746094 525.976562 40.25 525.976562 C 39.757812 525.980469 39.269531 525.933594 38.789062 525.839844 C 38.304688 525.742188 37.835938 525.601562 37.378906 525.414062 C 36.925781 525.230469 36.492188 525 36.082031 524.726562 C 35.671875 524.453125 35.289062 524.144531 34.941406 523.796875 C 34.59375 523.449219 34.28125 523.074219 34.003906 522.664062 C 33.730469 522.257812 33.496094 521.824219 33.308594 521.371094 C 33.117188 520.914062 32.972656 520.449219 32.875 519.964844 C 32.777344 519.480469 32.730469 518.996094 32.726562 518.503906 Z M 32.382812 413.503906 L 32.136719 338.503906 C 32.136719 338.011719 32.183594 337.523438 32.277344 337.039062 C 32.371094 336.554688 32.511719 336.085938 32.699219 335.632812 C 32.886719 335.175781 33.117188 334.742188 33.386719 334.332031 C 33.660156 333.921875 33.96875 333.542969 34.316406 333.191406 C 34.664062 332.84375 35.042969 332.53125 35.449219 332.257812 C 35.859375 331.980469 36.289062 331.75 36.746094 331.558594 C 37.199219 331.367188 37.667969 331.226562 38.152344 331.128906 C 38.632812 331.03125 39.121094 330.980469 39.613281 330.980469 C 40.105469 330.976562 40.59375 331.023438 41.078125 331.117188 C 41.558594 331.210938 42.03125 331.351562 42.484375 331.539062 C 42.941406 331.726562 43.375 331.957031 43.785156 332.230469 C 44.195312 332.5 44.574219 332.8125 44.925781 333.15625 C 45.273438 333.503906 45.585938 333.882812 45.859375 334.292969 C 46.136719 334.699219 46.367188 335.132812 46.558594 335.585938 C 46.746094 336.039062 46.890625 336.507812 46.988281 336.992188 C 47.085938 337.472656 47.136719 337.960938 47.136719 338.453125 L 47.382812 413.453125 C 47.386719 413.945312 47.339844 414.433594 47.242188 414.917969 C 47.148438 415.402344 47.007812 415.871094 46.820312 416.324219 C 46.636719 416.78125 46.40625 417.214844 46.132812 417.625 C 45.859375 418.035156 45.550781 418.414062 45.203125 418.765625 C 44.855469 419.113281 44.480469 419.425781 44.070312 419.699219 C 43.660156 419.976562 43.230469 420.207031 42.777344 420.398438 C 42.320312 420.585938 41.851562 420.730469 41.371094 420.828125 C 40.886719 420.925781 40.402344 420.976562 39.90625 420.976562 C 39.414062 420.980469 38.925781 420.933594 38.445312 420.839844 C 37.960938 420.746094 37.492188 420.605469 37.035156 420.417969 C 36.582031 420.230469 36.148438 420 35.738281 419.726562 C 35.328125 419.457031 34.945312 419.144531 34.597656 418.796875 C 34.25 418.453125 33.9375 418.074219 33.660156 417.664062 C 33.386719 417.257812 33.152344 416.824219 32.964844 416.371094 C 32.773438 415.917969 32.628906 415.449219 32.53125 414.964844 C 32.433594 414.484375 32.386719 413.996094 32.382812 413.503906 Z M 32.039062 308.503906 L 31.792969 233.503906 C 31.792969 233.011719 31.839844 232.523438 31.933594 232.039062 C 32.027344 231.558594 32.167969 231.085938 32.355469 230.632812 C 32.542969 230.175781 32.773438 229.742188 33.042969 229.332031 C 33.316406 228.921875 33.625 228.542969 33.972656 228.191406 C 34.320312 227.84375 34.699219 227.53125 35.105469 227.257812 C 35.515625 226.980469 35.945312 226.75 36.402344 226.558594 C 36.855469 226.371094 37.324219 226.226562 37.808594 226.128906 C 38.289062 226.03125 38.777344 225.980469 39.269531 225.980469 C 39.761719 225.976562 40.25 226.023438 40.734375 226.117188 C 41.214844 226.214844 41.6875 226.355469 42.140625 226.539062 C 42.597656 226.726562 43.03125 226.957031 43.441406 227.230469 C 43.851562 227.5 44.230469 227.8125 44.582031 228.160156 C 44.929688 228.503906 45.242188 228.882812 45.515625 229.292969 C 45.792969 229.699219 46.023438 230.132812 46.214844 230.585938 C 46.402344 231.039062 46.546875 231.507812 46.644531 231.992188 C 46.742188 232.472656 46.792969 232.960938 46.792969 233.453125 L 47.039062 308.453125 C 47.042969 308.945312 46.996094 309.433594 46.898438 309.917969 C 46.804688 310.402344 46.664062 310.871094 46.476562 311.324219 C 46.292969 311.78125 46.0625 312.214844 45.789062 312.625 C 45.515625 313.035156 45.207031 313.414062 44.859375 313.765625 C 44.511719 314.113281 44.136719 314.425781 43.726562 314.699219 C 43.316406 314.976562 42.886719 315.207031 42.433594 315.398438 C 41.976562 315.589844 41.507812 315.730469 41.027344 315.828125 C 40.542969 315.925781 40.058594 315.976562 39.5625 315.980469 C 39.070312 315.980469 38.582031 315.933594 38.101562 315.839844 C 37.617188 315.746094 37.148438 315.605469 36.691406 315.417969 C 36.238281 315.230469 35.804688 315 35.394531 314.726562 C 34.984375 314.457031 34.601562 314.144531 34.253906 313.800781 C 33.90625 313.453125 33.59375 313.074219 33.316406 312.664062 C 33.042969 312.257812 32.808594 311.824219 32.621094 311.371094 C 32.429688 310.917969 32.285156 310.449219 32.1875 309.964844 C 32.089844 309.484375 32.042969 308.996094 32.039062 308.503906 Z M 31.695312 203.503906 L 31.449219 128.503906 C 31.449219 128.011719 31.496094 127.523438 31.589844 127.039062 C 31.683594 126.558594 31.824219 126.085938 32.011719 125.632812 C 32.199219 125.175781 32.429688 124.742188 32.699219 124.332031 C 32.972656 123.921875 33.28125 123.542969 33.628906 123.195312 C 33.976562 122.84375 34.355469 122.53125 34.761719 122.257812 C 35.171875 121.984375 35.601562 121.75 36.058594 121.558594 C 36.511719 121.371094 36.980469 121.226562 37.464844 121.128906 C 37.945312 121.03125 38.433594 120.980469 38.925781 120.980469 C 39.417969 120.976562 39.90625 121.023438 40.390625 121.117188 C 40.871094 121.214844 41.34375 121.355469 41.796875 121.542969 C 42.253906 121.726562 42.6875 121.957031 43.097656 122.230469 C 43.507812 122.503906 43.886719 122.8125 44.238281 123.160156 C 44.585938 123.507812 44.898438 123.882812 45.171875 124.292969 C 45.449219 124.699219 45.679688 125.132812 45.871094 125.585938 C 46.058594 126.042969 46.203125 126.507812 46.300781 126.992188 C 46.398438 127.476562 46.449219 127.960938 46.449219 128.457031 L 46.695312 203.453125 C 46.699219 203.945312 46.652344 204.433594 46.554688 204.917969 C 46.460938 205.402344 46.320312 205.871094 46.132812 206.328125 C 45.949219 206.78125 45.71875 207.214844 45.445312 207.625 C 45.171875 208.035156 44.863281 208.414062 44.515625 208.765625 C 44.167969 209.113281 43.792969 209.425781 43.382812 209.703125 C 42.972656 209.976562 42.542969 210.210938 42.089844 210.398438 C 41.632812 210.589844 41.164062 210.734375 40.683594 210.832031 C 40.199219 210.929688 39.714844 210.976562 39.21875 210.980469 C 38.726562 210.980469 38.238281 210.933594 37.757812 210.839844 C 37.273438 210.746094 36.804688 210.605469 36.347656 210.417969 C 35.894531 210.230469 35.460938 210 35.050781 209.730469 C 34.640625 209.457031 34.257812 209.148438 33.910156 208.800781 C 33.5625 208.453125 33.25 208.074219 32.972656 207.667969 C 32.699219 207.257812 32.464844 206.828125 32.277344 206.371094 C 32.085938 205.917969 31.941406 205.449219 31.84375 204.964844 C 31.746094 204.484375 31.699219 203.996094 31.695312 203.503906 Z M 31.351562 98.503906 L 31.199219 51.871094 C 31.199219 51.378906 31.246094 50.890625 31.339844 50.410156 C 31.433594 49.925781 31.574219 49.457031 31.761719 49 C 31.949219 48.542969 32.175781 48.113281 32.449219 47.703125 C 32.722656 47.289062 33.03125 46.910156 33.378906 46.5625 C 33.726562 46.210938 34.105469 45.898438 34.511719 45.625 C 34.921875 45.351562 35.351562 45.117188 35.808594 44.929688 C 36.261719 44.738281 36.730469 44.59375 37.210938 44.496094 C 37.695312 44.398438 38.183594 44.347656 38.675781 44.347656 C 39.167969 44.347656 39.65625 44.390625 40.136719 44.488281 C 40.621094 44.582031 41.089844 44.722656 41.546875 44.910156 C 42.003906 45.097656 42.4375 45.324219 42.847656 45.597656 C 43.257812 45.871094 43.636719 46.179688 43.984375 46.527344 C 44.335938 46.875 44.648438 47.25 44.921875 47.660156 C 45.195312 48.070312 45.429688 48.5 45.621094 48.953125 C 45.808594 49.410156 45.953125 49.878906 46.050781 50.359375 C 46.148438 50.84375 46.199219 51.332031 46.199219 51.824219 L 46.351562 98.457031 C 46.355469 98.949219 46.308594 99.4375 46.210938 99.917969 C 46.117188 100.402344 45.976562 100.871094 45.789062 101.328125 C 45.605469 101.78125 45.375 102.214844 45.101562 102.625 C 44.828125 103.035156 44.519531 103.417969 44.171875 103.765625 C 43.824219 104.113281 43.449219 104.425781 43.039062 104.703125 C 42.628906 104.976562 42.199219 105.210938 41.746094 105.398438 C 41.289062 105.589844 40.820312 105.734375 40.339844 105.832031 C 39.855469 105.929688 39.371094 105.976562 38.875 105.980469 C 38.382812 105.980469 37.894531 105.933594 37.414062 105.839844 C 36.929688 105.746094 36.460938 105.605469 36.003906 105.417969 C 35.550781 105.230469 35.117188 105 34.707031 104.730469 C 34.296875 104.457031 33.914062 104.148438 33.566406 103.800781 C 33.21875 103.453125 32.90625 103.074219 32.628906 102.667969 C 32.355469 102.257812 32.121094 101.828125 31.933594 101.371094 C 31.742188 100.917969 31.597656 100.449219 31.5 99.96875 C 31.402344 99.484375 31.355469 98.996094 31.351562 98.503906 Z M 31.351562 98.503906 " fill-opacity="1" fill-rule="nonzero"/><path fill="#000000" d="M 623.148438 51.847656 L 548.148438 51.847656 C 547.65625 51.847656 547.167969 51.800781 546.6875 51.707031 C 546.203125 51.609375 545.734375 51.46875 545.28125 51.277344 C 544.824219 51.089844 544.390625 50.859375 543.984375 50.585938 C 543.574219 50.3125 543.195312 50 542.847656 49.652344 C 542.496094 49.304688 542.1875 48.925781 541.914062 48.515625 C 541.640625 48.105469 541.410156 47.675781 541.21875 47.21875 C 541.03125 46.765625 540.890625 46.296875 540.792969 45.8125 C 540.699219 45.328125 540.648438 44.84375 540.648438 44.347656 C 540.648438 43.855469 540.699219 43.371094 540.792969 42.886719 C 540.890625 42.402344 541.03125 41.933594 541.21875 41.480469 C 541.410156 41.023438 541.640625 40.59375 541.914062 40.183594 C 542.1875 39.773438 542.496094 39.394531 542.847656 39.046875 C 543.195312 38.699219 543.574219 38.386719 543.984375 38.113281 C 544.390625 37.839844 544.824219 37.609375 545.28125 37.421875 C 545.734375 37.230469 546.203125 37.089844 546.6875 36.992188 C 547.167969 36.898438 547.65625 36.847656 548.148438 36.847656 L 623.148438 36.847656 C 623.640625 36.847656 624.128906 36.898438 624.613281 36.992188 C 625.09375 37.089844 625.566406 37.230469 626.019531 37.421875 C 626.472656 37.609375 626.90625 37.839844 627.316406 38.113281 C 627.726562 38.386719 628.105469 38.699219 628.453125 39.046875 C 628.800781 39.394531 629.113281 39.773438 629.386719 40.183594 C 629.660156 40.59375 629.890625 41.023438 630.078125 41.480469 C 630.265625 41.933594 630.410156 42.402344 630.503906 42.886719 C 630.601562 43.371094 630.648438 43.855469 630.648438 44.347656 C 630.648438 44.84375 630.601562 45.328125 630.503906 45.8125 C 630.410156 46.296875 630.265625 46.765625 630.078125 47.21875 C 629.890625 47.675781 629.660156 48.105469 629.386719 48.515625 C 629.113281 48.925781 628.800781 49.304688 628.453125 49.652344 C 628.105469 50 627.726562 50.3125 627.316406 50.585938 C 626.90625 50.859375 626.472656 51.089844 626.019531 51.277344 C 625.566406 51.46875 625.09375 51.609375 624.613281 51.707031 C 624.128906 51.800781 623.640625 51.847656 623.148438 51.847656 Z M 518.148438 51.847656 L 443.148438 51.847656 C 442.65625 51.847656 442.167969 51.800781 441.6875 51.707031 C 441.203125 51.609375 440.734375 51.46875 440.28125 51.277344 C 439.824219 51.089844 439.390625 50.859375 438.984375 50.585938 C 438.574219 50.3125 438.195312 50 437.847656 49.652344 C 437.496094 49.304688 437.1875 48.925781 436.914062 48.515625 C 436.640625 48.105469 436.410156 47.675781 436.21875 47.21875 C 436.03125 46.765625 435.890625 46.296875 435.792969 45.8125 C 435.699219 45.328125 435.648438 44.84375 435.648438 44.347656 C 435.648438 43.855469 435.699219 43.371094 435.792969 42.886719 C 435.890625 42.402344 436.03125 41.933594 436.21875 41.480469 C 436.410156 41.023438 436.640625 40.59375 436.914062 40.183594 C 437.1875 39.773438 437.496094 39.394531 437.847656 39.046875 C 438.195312 38.699219 438.574219 38.386719 438.984375 38.113281 C 439.390625 37.839844 439.824219 37.609375 440.28125 37.421875 C 440.734375 37.230469 441.203125 37.089844 441.6875 36.992188 C 442.167969 36.898438 442.65625 36.847656 443.148438 36.847656 L 518.148438 36.847656 C 518.640625 36.847656 519.128906 36.898438 519.613281 36.992188 C 520.09375 37.089844 520.566406 37.230469 521.019531 37.421875 C 521.472656 37.609375 521.90625 37.839844 522.316406 38.113281 C 522.726562 38.386719 523.105469 38.699219 523.453125 39.046875 C 523.800781 39.394531 524.113281 39.773438 524.386719 40.183594 C 524.660156 40.59375 524.890625 41.023438 525.078125 41.480469 C 525.265625 41.933594 525.410156 42.402344 525.503906 42.886719 C 525.601562 43.371094 525.648438 43.855469 525.648438 44.347656 C 525.648438 44.84375 525.601562 45.328125 525.503906 45.8125 C 525.410156 46.296875 525.265625 46.765625 525.078125 47.21875 C 524.890625 47.675781 524.660156 48.105469 524.386719 48.515625 C 524.113281 48.925781 523.800781 49.304688 523.453125 49.652344 C 523.105469 50 522.726562 50.3125 522.316406 50.585938 C 521.90625 50.859375 521.472656 51.089844 521.019531 51.277344 C 520.566406 51.46875 520.09375 51.609375 519.613281 51.707031 C 519.128906 51.800781 518.640625 51.847656 518.148438 51.847656 Z M 413.148438 51.847656 L 338.148438 51.847656 C 337.65625 51.847656 337.167969 51.800781 336.6875 51.707031 C 336.203125 51.609375 335.734375 51.46875 335.28125 51.277344 C 334.824219 51.089844 334.390625 50.859375 333.984375 50.585938 C 333.574219 50.3125 333.195312 50 332.847656 49.652344 C 332.496094 49.304688 332.1875 48.925781 331.914062 48.515625 C 331.640625 48.105469 331.410156 47.675781 331.21875 47.21875 C 331.03125 46.765625 330.890625 46.296875 330.792969 45.8125 C 330.699219 45.328125 330.648438 44.84375 330.648438 44.347656 C 330.648438 43.855469 330.699219 43.371094 330.792969 42.886719 C 330.890625 42.402344 331.03125 41.933594 331.21875 41.480469 C 331.410156 41.023438 331.640625 40.59375 331.914062 40.183594 C 332.1875 39.773438 332.496094 39.394531 332.847656 39.046875 C 333.195312 38.699219 333.574219 38.386719 333.984375 38.113281 C 334.390625 37.839844 334.824219 37.609375 335.28125 37.421875 C 335.734375 37.230469 336.203125 37.089844 336.6875 36.992188 C 337.167969 36.898438 337.65625 36.847656 338.148438 36.847656 L 413.148438 36.847656 C 413.640625 36.847656 414.128906 36.898438 414.613281 36.992188 C 415.09375 37.089844 415.566406 37.230469 416.019531 37.421875 C 416.472656 37.609375 416.90625 37.839844 417.316406 38.113281 C 417.726562 38.386719 418.105469 38.699219 418.453125 39.046875 C 418.800781 39.394531 419.113281 39.773438 419.386719 40.183594 C 419.660156 40.59375 419.890625 41.023438 420.078125 41.480469 C 420.265625 41.933594 420.410156 42.402344 420.503906 42.886719 C 420.601562 43.371094 420.648438 43.855469 420.648438 44.347656 C 420.648438 44.84375 420.601562 45.328125 420.503906 45.8125 C 420.410156 46.296875 420.265625 46.765625 420.078125 47.21875 C 419.890625 47.675781 419.660156 48.105469 419.386719 48.515625 C 419.113281 48.925781 418.800781 49.304688 418.453125 49.652344 C 418.105469 50 417.726562 50.3125 417.316406 50.585938 C 416.90625 50.859375 416.472656 51.089844 416.019531 51.277344 C 415.566406 51.46875 415.09375 51.609375 414.613281 51.707031 C 414.128906 51.800781 413.640625 51.847656 413.148438 51.847656 Z M 308.148438 51.847656 L 233.148438 51.847656 C 232.65625 51.847656 232.167969 51.800781 231.6875 51.707031 C 231.203125 51.609375 230.734375 51.46875 230.28125 51.277344 C 229.824219 51.089844 229.390625 50.859375 228.984375 50.585938 C 228.574219 50.3125 228.195312 50 227.847656 49.652344 C 227.496094 49.304688 227.1875 48.925781 226.914062 48.515625 C 226.640625 48.105469 226.410156 47.675781 226.21875 47.21875 C 226.03125 46.765625 225.890625 46.296875 225.792969 45.8125 C 225.699219 45.328125 225.648438 44.84375 225.648438 44.347656 C 225.648438 43.855469 225.699219 43.371094 225.792969 42.886719 C 225.890625 42.402344 226.03125 41.933594 226.21875 41.480469 C 226.410156 41.023438 226.640625 40.59375 226.914062 40.183594 C 227.1875 39.773438 227.496094 39.394531 227.847656 39.046875 C 228.195312 38.699219 228.574219 38.386719 228.984375 38.113281 C 229.390625 37.839844 229.824219 37.609375 230.28125 37.421875 C 230.734375 37.230469 231.203125 37.089844 231.6875 36.992188 C 232.167969 36.898438 232.65625 36.847656 233.148438 36.847656 L 308.148438 36.847656 C 308.640625 36.847656 309.128906 36.898438 309.613281 36.992188 C 310.09375 37.089844 310.566406 37.230469 311.019531 37.421875 C 311.472656 37.609375 311.90625 37.839844 312.316406 38.113281 C 312.726562 38.386719 313.105469 38.699219 313.453125 39.046875 C 313.800781 39.394531 314.113281 39.773438 314.386719 40.183594 C 314.660156 40.59375 314.890625 41.023438 315.078125 41.480469 C 315.265625 41.933594 315.410156 42.402344 315.503906 42.886719 C 315.601562 43.371094 315.648438 43.855469 315.648438 44.347656 C 315.648438 44.84375 315.601562 45.328125 315.503906 45.8125 C 315.410156 46.296875 315.265625 46.765625 315.078125 47.21875 C 314.890625 47.675781 314.660156 48.105469 314.386719 48.515625 C 314.113281 48.925781 313.800781 49.304688 313.453125 49.652344 C 313.105469 50 312.726562 50.3125 312.316406 50.585938 C 311.90625 50.859375 311.472656 51.089844 311.019531 51.277344 C 310.566406 51.46875 310.09375 51.609375 309.613281 51.707031 C 309.128906 51.800781 308.640625 51.847656 308.148438 51.847656 Z M 203.148438 51.847656 L 128.148438 51.847656 C 127.65625 51.847656 127.167969 51.800781 126.6875 51.707031 C 126.203125 51.609375 125.734375 51.46875 125.28125 51.277344 C 124.824219 51.089844 124.390625 50.859375 123.984375 50.585938 C 123.574219 50.3125 123.195312 50 122.847656 49.652344 C 122.5 49.304688 122.1875 48.925781 121.914062 48.515625 C 121.640625 48.105469 121.410156 47.675781 121.21875 47.21875 C 121.03125 46.765625 120.890625 46.296875 120.792969 45.8125 C 120.699219 45.328125 120.648438 44.84375 120.648438 44.347656 C 120.648438 43.855469 120.699219 43.371094 120.792969 42.886719 C 120.890625 42.402344 121.03125 41.933594 121.21875 41.480469 C 121.410156 41.023438 121.640625 40.59375 121.914062 40.183594 C 122.1875 39.773438 122.5 39.394531 122.847656 39.046875 C 123.195312 38.699219 123.574219 38.386719 123.984375 38.113281 C 124.390625 37.839844 124.824219 37.609375 125.28125 37.421875 C 125.734375 37.230469 126.203125 37.089844 126.6875 36.992188 C 127.167969 36.898438 127.65625 36.847656 128.148438 36.847656 L 203.148438 36.847656 C 203.640625 36.847656 204.128906 36.898438 204.613281 36.992188 C 205.09375 37.089844 205.566406 37.230469 206.019531 37.421875 C 206.476562 37.609375 206.90625 37.839844 207.316406 38.113281 C 207.726562 38.386719 208.105469 38.699219 208.453125 39.046875 C 208.800781 39.394531 209.113281 39.773438 209.386719 40.183594 C 209.660156 40.59375 209.890625 41.023438 210.078125 41.480469 C 210.265625 41.933594 210.410156 42.402344 210.503906 42.886719 C 210.601562 43.371094 210.648438 43.855469 210.648438 44.347656 C 210.648438 44.84375 210.601562 45.328125 210.503906 45.8125 C 210.410156 46.296875 210.265625 46.765625 210.078125 47.21875 C 209.890625 47.675781 209.660156 48.105469 209.386719 48.515625 C 209.113281 48.925781 208.800781 49.304688 208.453125 49.652344 C 208.105469 50 207.726562 50.3125 207.316406 50.585938 C 206.90625 50.859375 206.476562 51.089844 206.019531 51.277344 C 205.566406 51.46875 205.09375 51.609375 204.613281 51.707031 C 204.128906 51.800781 203.640625 51.847656 203.148438 51.847656 Z M 98.148438 51.847656 L 46.167969 51.847656 C 45.675781 51.847656 45.1875 51.800781 44.707031 51.707031 C 44.222656 51.609375 43.753906 51.46875 43.300781 51.277344 C 42.84375 51.089844 42.414062 50.859375 42.003906 50.585938 C 41.59375 50.3125 41.214844 50 40.867188 49.652344 C 40.519531 49.304688 40.207031 48.925781 39.933594 48.515625 C 39.660156 48.105469 39.429688 47.675781 39.242188 47.21875 C 39.050781 46.765625 38.910156 46.296875 38.8125 45.8125 C 38.71875 45.328125 38.667969 44.84375 38.667969 44.347656 C 38.667969 43.855469 38.71875 43.371094 38.8125 42.886719 C 38.910156 42.402344 39.050781 41.933594 39.242188 41.480469 C 39.429688 41.023438 39.660156 40.59375 39.933594 40.183594 C 40.207031 39.773438 40.519531 39.394531 40.867188 39.046875 C 41.214844 38.699219 41.59375 38.386719 42.003906 38.113281 C 42.414062 37.839844 42.84375 37.609375 43.300781 37.421875 C 43.753906 37.230469 44.222656 37.089844 44.707031 36.992188 C 45.1875 36.898438 45.675781 36.847656 46.167969 36.847656 L 98.148438 36.847656 C 98.640625 36.847656 99.128906 36.898438 99.613281 36.992188 C 100.09375 37.089844 100.566406 37.230469 101.019531 37.421875 C 101.476562 37.609375 101.90625 37.839844 102.316406 38.113281 C 102.726562 38.386719 103.105469 38.699219 103.453125 39.046875 C 103.800781 39.394531 104.113281 39.773438 104.386719 40.183594 C 104.660156 40.59375 104.890625 41.023438 105.078125 41.480469 C 105.265625 41.933594 105.410156 42.402344 105.503906 42.886719 C 105.601562 43.371094 105.648438 43.855469 105.648438 44.347656 C 105.648438 44.84375 105.601562 45.328125 105.503906 45.8125 C 105.410156 46.296875 105.265625 46.765625 105.078125 47.21875 C 104.890625 47.675781 104.660156 48.105469 104.386719 48.515625 C 104.113281 48.925781 103.800781 49.304688 103.453125 49.652344 C 103.105469 50 102.726562 50.3125 102.316406 50.585938 C 101.90625 50.859375 101.476562 51.089844 101.019531 51.277344 C 100.566406 51.46875 100.09375 51.609375 99.613281 51.707031 C 99.128906 51.800781 98.640625 51.847656 98.148438 51.847656 Z M 98.148438 51.847656 " fill-opacity="1" fill-rule="nonzero"/><path fill="#000000" d="M 638.152344 51.855469 L 638.152344 126.855469 C 638.152344 127.347656 638.105469 127.835938 638.007812 128.316406 C 637.910156 128.800781 637.769531 129.269531 637.582031 129.722656 C 637.390625 130.179688 637.160156 130.613281 636.886719 131.019531 C 636.613281 131.429688 636.304688 131.808594 635.953125 132.15625 C 635.605469 132.507812 635.226562 132.816406 634.820312 133.089844 C 634.410156 133.363281 633.976562 133.59375 633.523438 133.785156 C 633.066406 133.972656 632.597656 134.113281 632.113281 134.210938 C 631.632812 134.304688 631.144531 134.355469 630.652344 134.355469 C 630.160156 134.355469 629.671875 134.304688 629.1875 134.210938 C 628.707031 134.113281 628.238281 133.972656 627.78125 133.785156 C 627.328125 133.59375 626.894531 133.363281 626.484375 133.089844 C 626.074219 132.816406 625.695312 132.507812 625.347656 132.15625 C 625 131.808594 624.6875 131.429688 624.414062 131.019531 C 624.140625 130.613281 623.910156 130.179688 623.722656 129.722656 C 623.535156 129.269531 623.390625 128.800781 623.296875 128.316406 C 623.199219 127.835938 623.152344 127.347656 623.152344 126.855469 L 623.152344 51.855469 C 623.152344 51.363281 623.199219 50.875 623.296875 50.390625 C 623.390625 49.910156 623.535156 49.4375 623.722656 48.984375 C 623.910156 48.53125 624.140625 48.097656 624.414062 47.6875 C 624.6875 47.277344 625 46.898438 625.347656 46.550781 C 625.695312 46.203125 626.074219 45.890625 626.484375 45.617188 C 626.894531 45.34375 627.328125 45.113281 627.78125 44.925781 C 628.238281 44.738281 628.707031 44.59375 629.1875 44.5 C 629.671875 44.402344 630.160156 44.355469 630.652344 44.355469 C 631.144531 44.355469 631.632812 44.402344 632.113281 44.5 C 632.597656 44.59375 633.066406 44.738281 633.523438 44.925781 C 633.976562 45.113281 634.410156 45.34375 634.820312 45.617188 C 635.226562 45.890625 635.605469 46.203125 635.953125 46.550781 C 636.304688 46.898438 636.613281 47.277344 636.886719 47.6875 C 637.160156 48.097656 637.390625 48.53125 637.582031 48.984375 C 637.769531 49.4375 637.910156 49.910156 638.007812 50.390625 C 638.105469 50.875 638.152344 51.363281 638.152344 51.855469 Z M 638.152344 156.855469 L 638.152344 231.855469 C 638.152344 232.347656 638.105469 232.835938 638.007812 233.316406 C 637.910156 233.800781 637.769531 234.269531 637.582031 234.722656 C 637.390625 235.179688 637.160156 235.613281 636.886719 236.019531 C 636.613281 236.429688 636.304688 236.808594 635.953125 237.15625 C 635.605469 237.507812 635.226562 237.816406 634.820312 238.089844 C 634.410156 238.363281 633.976562 238.59375 633.523438 238.785156 C 633.066406 238.972656 632.597656 239.113281 632.113281 239.210938 C 631.632812 239.304688 631.144531 239.355469 630.652344 239.355469 C 630.160156 239.355469 629.671875 239.304688 629.1875 239.210938 C 628.707031 239.113281 628.238281 238.972656 627.78125 238.785156 C 627.328125 238.59375 626.894531 238.363281 626.484375 238.089844 C 626.074219 237.816406 625.695312 237.507812 625.347656 237.15625 C 625 236.808594 624.6875 236.429688 624.414062 236.019531 C 624.140625 235.613281 623.910156 235.179688 623.722656 234.722656 C 623.535156 234.269531 623.390625 233.800781 623.296875 233.316406 C 623.199219 232.835938 623.152344 232.347656 623.152344 231.855469 L 623.152344 156.855469 C 623.152344 156.363281 623.199219 155.875 623.296875 155.390625 C 623.390625 154.910156 623.535156 154.4375 623.722656 153.984375 C 623.910156 153.53125 624.140625 153.097656 624.414062 152.6875 C 624.6875 152.277344 625 151.898438 625.347656 151.550781 C 625.695312 151.203125 626.074219 150.890625 626.484375 150.617188 C 626.894531 150.34375 627.328125 150.113281 627.78125 149.925781 C 628.238281 149.738281 628.707031 149.59375 629.1875 149.5 C 629.671875 149.402344 630.160156 149.355469 630.652344 149.355469 C 631.144531 149.355469 631.632812 149.402344 632.113281 149.5 C 632.597656 149.59375 633.066406 149.738281 633.523438 149.925781 C 633.976562 150.113281 634.410156 150.34375 634.820312 150.617188 C 635.226562 150.890625 635.605469 151.203125 635.953125 151.550781 C 636.304688 151.898438 636.613281 152.277344 636.886719 152.6875 C 637.160156 153.097656 637.390625 153.53125 637.582031 153.984375 C 637.769531 154.4375 637.910156 154.910156 638.007812 155.390625 C 638.105469 155.875 638.152344 156.363281 638.152344 156.855469 Z M 638.152344 261.855469 L 638.152344 336.855469 C 638.152344 337.347656 638.105469 337.835938 638.007812 338.316406 C 637.910156 338.800781 637.769531 339.269531 637.582031 339.722656 C 637.390625 340.179688 637.160156 340.613281 636.886719 341.019531 C 636.613281 341.429688 636.304688 341.808594 635.953125 342.15625 C 635.605469 342.507812 635.226562 342.816406 634.820312 343.089844 C 634.410156 343.363281 633.976562 343.59375 633.523438 343.785156 C 633.066406 343.972656 632.597656 344.113281 632.113281 344.210938 C 631.632812 344.304688 631.144531 344.355469 630.652344 344.355469 C 630.160156 344.355469 629.671875 344.304688 629.1875 344.210938 C 628.707031 344.113281 628.238281 343.972656 627.78125 343.785156 C 627.328125 343.59375 626.894531 343.363281 626.484375 343.089844 C 626.074219 342.816406 625.695312 342.507812 625.347656 342.15625 C 625 341.808594 624.6875 341.429688 624.414062 341.019531 C 624.140625 340.613281 623.910156 340.179688 623.722656 339.722656 C 623.535156 339.269531 623.390625 338.800781 623.296875 338.316406 C 623.199219 337.835938 623.152344 337.347656 623.152344 336.855469 L 623.152344 261.855469 C 623.152344 261.363281 623.199219 260.875 623.296875 260.390625 C 623.390625 259.910156 623.535156 259.4375 623.722656 258.984375 C 623.910156 258.53125 624.140625 258.097656 624.414062 257.6875 C 624.6875 257.277344 625 256.898438 625.347656 256.550781 C 625.695312 256.203125 626.074219 255.890625 626.484375 255.617188 C 626.894531 255.34375 627.328125 255.113281 627.78125 254.925781 C 628.238281 254.738281 628.707031 254.59375 629.1875 254.5 C 629.671875 254.402344 630.160156 254.355469 630.652344 254.355469 C 631.144531 254.355469 631.632812 254.402344 632.113281 254.5 C 632.597656 254.59375 633.066406 254.738281 633.523438 254.925781 C 633.976562 255.113281 634.410156 255.34375 634.820312 255.617188 C 635.226562 255.890625 635.605469 256.203125 635.953125 256.550781 C 636.304688 256.898438 636.613281 257.277344 636.886719 257.6875 C 637.160156 258.097656 637.390625 258.53125 637.582031 258.984375 C 637.769531 259.4375 637.910156 259.910156 638.007812 260.390625 C 638.105469 260.875 638.152344 261.363281 638.152344 261.855469 Z M 638.152344 366.855469 L 638.152344 441.855469 C 638.152344 442.347656 638.105469 442.835938 638.007812 443.316406 C 637.910156 443.800781 637.769531 444.269531 637.582031 444.722656 C 637.390625 445.179688 637.160156 445.613281 636.886719 446.019531 C 636.613281 446.429688 636.304688 446.808594 635.953125 447.15625 C 635.605469 447.507812 635.226562 447.816406 634.820312 448.089844 C 634.410156 448.363281 633.976562 448.59375 633.523438 448.785156 C 633.066406 448.972656 632.597656 449.113281 632.113281 449.210938 C 631.632812 449.304688 631.144531 449.355469 630.652344 449.355469 C 630.160156 449.355469 629.671875 449.304688 629.1875 449.210938 C 628.707031 449.113281 628.238281 448.972656 627.78125 448.785156 C 627.328125 448.59375 626.894531 448.363281 626.484375 448.089844 C 626.074219 447.816406 625.695312 447.507812 625.347656 447.15625 C 625 446.808594 624.6875 446.429688 624.414062 446.019531 C 624.140625 445.613281 623.910156 445.179688 623.722656 444.722656 C 623.535156 444.269531 623.390625 443.800781 623.296875 443.316406 C 623.199219 442.835938 623.152344 442.347656 623.152344 441.855469 L 623.152344 366.855469 C 623.152344 366.363281 623.199219 365.875 623.296875 365.390625 C 623.390625 364.910156 623.535156 364.4375 623.722656 363.984375 C 623.910156 363.53125 624.140625 363.097656 624.414062 362.6875 C 624.6875 362.277344 625 361.898438 625.347656 361.550781 C 625.695312 361.203125 626.074219 360.890625 626.484375 360.617188 C 626.894531 360.34375 627.328125 360.113281 627.78125 359.925781 C 628.238281 359.738281 628.707031 359.59375 629.1875 359.5 C 629.671875 359.402344 630.160156 359.355469 630.652344 359.355469 C 631.144531 359.355469 631.632812 359.402344 632.113281 359.5 C 632.597656 359.59375 633.066406 359.738281 633.523438 359.925781 C 633.976562 360.113281 634.410156 360.34375 634.820312 360.617188 C 635.226562 360.890625 635.605469 361.203125 635.953125 361.550781 C 636.304688 361.898438 636.613281 362.277344 636.886719 362.6875 C 637.160156 363.097656 637.390625 363.53125 637.582031 363.984375 C 637.769531 364.4375 637.910156 364.910156 638.007812 365.390625 C 638.105469 365.875 638.152344 366.363281 638.152344 366.855469 Z M 638.152344 366.855469 " fill-opacity="1" fill-rule="nonzero"/><g clip-path="url(#90f2c5cffd)"><g clip-path="url(#4bf9681d98)"><path stroke-linecap="butt" transform="matrix(0.75, 0, 0, 0.75, 474.443356, 466.234509)" fill="none" stroke-linejoin="miter" d="M 156.0547 -0.000179038 C 69.867196 -0.000179038 -0.00259904 69.869616 -0.00259904 156.05712 C -0.00259904 242.239416 69.867196 312.109211 156.0547 312.109211 C 242.242204 312.109211 312.106791 242.239416 312.106791 156.05712 C 312.106791 69.869616 242.242204 -0.000179038 156.0547 -0.000179038 Z M 156.0547 -0.000179038 " stroke="#000000" stroke-width="44" stroke-opacity="1" stroke-miterlimit="4"/></g></g><path stroke-linecap="round" transform="matrix(-0.75, 0, 0, -0.75, 749.989598, 591.906207)" fill="none" stroke-linejoin="miter" d="M 11.501756 11.499943 L 124.012179 11.499943 " stroke="#000000" stroke-width="23" stroke-opacity="1" stroke-miterlimit="4"/><path stroke-linecap="round" transform="matrix(0, -0.75, 0.75, 0, 582.859606, 532.542354)" fill="none" stroke-linejoin="miter" d="M 11.499181 11.499692 L 132.202312 11.499692 " stroke="#000000" stroke-width="23" stroke-opacity="1" stroke-miterlimit="4"/><path stroke-linecap="round" transform="matrix(-0.75, 0, 0, -0.75, 533.667625, 591.906207)" fill="none" stroke-linejoin="miter" d="M 11.499542 11.499943 L 122.759964 11.499943 " stroke="#000000" stroke-width="23" stroke-opacity="1" stroke-miterlimit="4"/><path stroke-linecap="round" transform="matrix(0, -0.75, 0.75, 0, 582.862654, 741.78872)" fill="none" stroke-linejoin="miter" d="M 11.499544 11.500837 L 126.551633 11.500837 " stroke="#000000" stroke-width="23" stroke-opacity="1" stroke-miterlimit="4"/></svg>