<?xml version="1.0" encoding="UTF-8" standalone="no"?>
<!-- Created with Inkscape (http://www.inkscape.org/) -->

<svg
   width="18.141853mm"
   height="18.141851mm"
   viewBox="0 0 64.282157 64.282153"
   id="svg2"
   version="1.1"
   inkscape:version="1.1.2 (0a00cf5339, 2022-02-04)"
   sodipodi:docname="surface_edges_color.svg"
   xmlns:inkscape="http://www.inkscape.org/namespaces/inkscape"
   xmlns:sodipodi="http://sodipodi.sourceforge.net/DTD/sodipodi-0.dtd"
   xmlns="http://www.w3.org/2000/svg"
   xmlns:svg="http://www.w3.org/2000/svg"
   xmlns:rdf="http://www.w3.org/1999/02/22-rdf-syntax-ns#"
   xmlns:cc="http://creativecommons.org/ns#"
   xmlns:dc="http://purl.org/dc/elements/1.1/">
  <sodipodi:namedview
     id="base"
     pagecolor="#ffffff"
     bordercolor="#666666"
     borderopacity="1.0"
     inkscape:pageopacity="0.0"
     inkscape:pageshadow="2"
     inkscape:zoom="1.4142136"
     inkscape:cx="14.849242"
     inkscape:cy="126.92566"
     inkscape:document-units="px"
     inkscape:current-layer="layer1"
     showgrid="false"
     inkscape:window-width="1563"
     inkscape:window-height="700"
     inkscape:window-x="4007"
     inkscape:window-y="0"
     inkscape:window-maximized="0"
     fit-margin-top="0"
     fit-margin-left="0"
     fit-margin-right="0"
     fit-margin-bottom="0"
     inkscape:pagecheckerboard="0" />
  <defs
     id="defs4" />
  <metadata
     id="metadata7">
    <rdf:RDF>
      <cc:Work
         rdf:about="">
        <dc:format>image/svg+xml</dc:format>
        <dc:type
           rdf:resource="http://purl.org/dc/dcmitype/StillImage" />
      </cc:Work>
    </rdf:RDF>
  </metadata>
  <g
     id="layer1"
     inkscape:groupmode="layer"
     inkscape:label="Calque 1"
     transform="translate(-542.07318,-507.29257)">
    <path
       id="path3496"
       d="m 579.28104,525.64157 c -2.06229,0.13134 -3.93387,0.90924 -4.99586,3.68077 -0.12086,0.31616 -0.41122,0.50809 -0.74999,0.50809 -0.57107,0 -2.33677,-1.40868 -2.84001,-1.74875 3.5e-4,4.19241 1.95024,7.87726 6.58011,7.87726 3.89946,0 6.57961,-2.22833 6.57961,-6.11884 0,-0.15841 -0.0334,-0.30954 -0.0498,-0.46481 l -4.524,-3.73372 z m 14.95163,-15.74844 c -0.77927,0 -1.50971,0.34161 -2.06693,0.83747 -10.5073,9.29612 -11.60064,9.51452 -11.60064,12.25093 0,0.69747 0.16703,1.36234 0.44874,1.97021 l 3.28055,2.70739 c 0.37062,0.0916 0.75253,0.15419 1.15092,0.15419 3.19264,0 5.04315,-2.31487 10.85428,-13.05631 0.37936,-0.73056 0.7145,-1.51967 0.7145,-2.34134 0,-1.4718 -1.33647,-2.5226 -2.78142,-2.5226 z"
       style="fill:none;stroke:#000000;stroke-width:0.903183;stroke-opacity:1"
       inkscape:connector-curvature="0" />
    <path
       sodipodi:nodetypes="cccccccccccccccc"
       inkscape:connector-curvature="0"
       id="path4775"
       d="m 581.89929,519.95313 -16.35046,-10e-6 c -1.56861,-10e-5 -2.59485,1.64335 -1.90625,3.05274 l 16.84961,34.4043 c 0.79792,1.63237 3.14481,1.57178 3.85742,-0.0996 l 14.68164,-34.4043 c 0.59626,-1.3992 -0.43022,-2.9528 -1.95117,-2.95313 h -3.25798 l -2.76785,4.24218 h 2.81294 l -11.60157,27.18946 -7.90427,-16.13896 c -4.05246,-2.81202 -3.30408,-4.84023 -3.43415,-7.01185 l -1.97798,-4.03865 h 12.01257 c -0.56478,-1.8527 -0.1634,-3.22232 0.9375,-4.24218 z"
       style="color:#000000;font-style:normal;font-variant:normal;font-weight:normal;font-stretch:normal;font-size:medium;line-height:normal;font-family:sans-serif;text-indent:0;text-align:start;text-decoration:none;text-decoration-line:none;text-decoration-style:solid;text-decoration-color:#000000;letter-spacing:normal;word-spacing:normal;text-transform:none;writing-mode:lr-tb;direction:ltr;baseline-shift:baseline;text-anchor:start;white-space:normal;clip-rule:nonzero;display:inline;overflow:visible;visibility:visible;opacity:1;isolation:auto;mix-blend-mode:normal;color-interpolation:sRGB;color-interpolation-filters:linearRGB;solid-color:#000000;solid-opacity:1;fill:#000000;fill-opacity:1;fill-rule:evenodd;stroke:none;stroke-width:4.24248;stroke-linecap:round;stroke-linejoin:round;stroke-miterlimit:4;stroke-dasharray:none;stroke-dashoffset:0;stroke-opacity:1;color-rendering:auto;image-rendering:auto;shape-rendering:auto;text-rendering:auto;enable-background:accumulate" />
    <path
       sodipodi:nodetypes="ccc"
       inkscape:connector-curvature="0"
       id="path4777"
       d="m 565.54819,522.07372 -15.46442,34.40439 H 582.398"
       style="color:#000000;clip-rule:nonzero;display:inline;overflow:visible;visibility:visible;opacity:1;isolation:auto;mix-blend-mode:normal;color-interpolation:sRGB;color-interpolation-filters:linearRGB;solid-color:#000000;solid-opacity:1;fill:none;fill-opacity:1;fill-rule:evenodd;stroke:#000000;stroke-width:4.24248;stroke-linecap:round;stroke-linejoin:round;stroke-miterlimit:4;stroke-dasharray:none;stroke-dashoffset:0;stroke-opacity:1;color-rendering:auto;image-rendering:auto;shape-rendering:auto;text-rendering:auto;enable-background:accumulate" />
  </g>
</svg>
